<mxfile host="Electron" agent="Mozilla/5.0 (Windows NT 10.0; Win64; x64) AppleWebKit/537.36 (KHTML, like Gecko) draw.io/24.7.17 Chrome/128.0.6613.36 Electron/32.0.1 Safari/537.36" version="24.7.17">
  <diagram name="Page-1" id="lJW0d1pWQbGr9me1--Ym">
    <mxGraphModel dx="2074" dy="1204" grid="1" gridSize="10" guides="1" tooltips="1" connect="1" arrows="1" fold="1" page="1" pageScale="1" pageWidth="1654" pageHeight="2336" math="0" shadow="0">
      <root>
        <mxCell id="0" />
        <mxCell id="1" parent="0" />
        <mxCell id="xap4LW5MkFUEL4eOMsLZ-1" value="GardenBro&lt;div&gt;&lt;br&gt;&lt;/div&gt;" style="shape=rect;html=1;verticalAlign=top;fontStyle=1;whiteSpace=wrap;align=center;" vertex="1" parent="1">
          <mxGeometry x="340" y="170" width="920" height="770" as="geometry" />
        </mxCell>
        <mxCell id="xap4LW5MkFUEL4eOMsLZ-2" value="Zobrazit úvodní nástěnku" style="ellipse;whiteSpace=wrap;html=1;" vertex="1" parent="1">
          <mxGeometry x="470" y="465" width="140" height="70" as="geometry" />
        </mxCell>
        <mxCell id="xap4LW5MkFUEL4eOMsLZ-4" style="edgeStyle=orthogonalEdgeStyle;rounded=0;orthogonalLoop=1;jettySize=auto;html=1;endArrow=none;endFill=0;" edge="1" parent="1" source="xap4LW5MkFUEL4eOMsLZ-3" target="xap4LW5MkFUEL4eOMsLZ-2">
          <mxGeometry relative="1" as="geometry" />
        </mxCell>
        <mxCell id="xap4LW5MkFUEL4eOMsLZ-13" style="rounded=0;orthogonalLoop=1;jettySize=auto;html=1;endArrow=none;endFill=0;" edge="1" parent="1" source="xap4LW5MkFUEL4eOMsLZ-3" target="xap4LW5MkFUEL4eOMsLZ-12">
          <mxGeometry relative="1" as="geometry" />
        </mxCell>
        <mxCell id="xap4LW5MkFUEL4eOMsLZ-3" value="Uživatel" style="shape=umlActor;html=1;verticalLabelPosition=bottom;verticalAlign=top;align=center;" vertex="1" parent="1">
          <mxGeometry x="210" y="470" width="30" height="60" as="geometry" />
        </mxCell>
        <mxCell id="xap4LW5MkFUEL4eOMsLZ-8" style="edgeStyle=orthogonalEdgeStyle;rounded=0;orthogonalLoop=1;jettySize=auto;html=1;dashed=1;" edge="1" parent="1" source="xap4LW5MkFUEL4eOMsLZ-5" target="xap4LW5MkFUEL4eOMsLZ-2">
          <mxGeometry relative="1" as="geometry" />
        </mxCell>
        <mxCell id="xap4LW5MkFUEL4eOMsLZ-9" value="extend" style="edgeLabel;html=1;align=center;verticalAlign=middle;resizable=0;points=[];" vertex="1" connectable="0" parent="xap4LW5MkFUEL4eOMsLZ-8">
          <mxGeometry x="-0.0154" y="-1" relative="1" as="geometry">
            <mxPoint as="offset" />
          </mxGeometry>
        </mxCell>
        <mxCell id="xap4LW5MkFUEL4eOMsLZ-5" value="Přizpůsobit úvodní nástěnku" style="ellipse;whiteSpace=wrap;html=1;" vertex="1" parent="1">
          <mxGeometry x="470" y="330" width="140" height="70" as="geometry" />
        </mxCell>
        <mxCell id="xap4LW5MkFUEL4eOMsLZ-20" style="rounded=0;orthogonalLoop=1;jettySize=auto;html=1;dashed=1;" edge="1" parent="1" source="xap4LW5MkFUEL4eOMsLZ-12" target="xap4LW5MkFUEL4eOMsLZ-19">
          <mxGeometry relative="1" as="geometry" />
        </mxCell>
        <mxCell id="xap4LW5MkFUEL4eOMsLZ-21" value="include" style="edgeLabel;html=1;align=center;verticalAlign=middle;resizable=0;points=[];" vertex="1" connectable="0" parent="xap4LW5MkFUEL4eOMsLZ-20">
          <mxGeometry x="-0.059" y="8" relative="1" as="geometry">
            <mxPoint as="offset" />
          </mxGeometry>
        </mxCell>
        <mxCell id="xap4LW5MkFUEL4eOMsLZ-12" value="Vytvořit vlastní nástěnku" style="ellipse;whiteSpace=wrap;html=1;" vertex="1" parent="1">
          <mxGeometry x="470" y="570" width="140" height="70" as="geometry" />
        </mxCell>
        <mxCell id="xap4LW5MkFUEL4eOMsLZ-17" style="edgeStyle=orthogonalEdgeStyle;rounded=0;orthogonalLoop=1;jettySize=auto;html=1;dashed=1;" edge="1" parent="1" source="xap4LW5MkFUEL4eOMsLZ-22" target="xap4LW5MkFUEL4eOMsLZ-12">
          <mxGeometry relative="1" as="geometry">
            <mxPoint x="700" y="605" as="sourcePoint" />
          </mxGeometry>
        </mxCell>
        <mxCell id="xap4LW5MkFUEL4eOMsLZ-18" value="extend" style="edgeLabel;html=1;align=center;verticalAlign=middle;resizable=0;points=[];" vertex="1" connectable="0" parent="xap4LW5MkFUEL4eOMsLZ-17">
          <mxGeometry x="0.1556" y="-1" relative="1" as="geometry">
            <mxPoint as="offset" />
          </mxGeometry>
        </mxCell>
        <mxCell id="xap4LW5MkFUEL4eOMsLZ-19" value="Přidat zdroj dat (modul)" style="ellipse;whiteSpace=wrap;html=1;" vertex="1" parent="1">
          <mxGeometry x="700" y="460" width="140" height="70" as="geometry" />
        </mxCell>
        <mxCell id="xap4LW5MkFUEL4eOMsLZ-22" value="Konfigurace zobrazení dat" style="ellipse;whiteSpace=wrap;html=1;" vertex="1" parent="1">
          <mxGeometry x="710" y="570" width="140" height="70" as="geometry" />
        </mxCell>
        <mxCell id="xap4LW5MkFUEL4eOMsLZ-28" style="edgeStyle=orthogonalEdgeStyle;rounded=0;orthogonalLoop=1;jettySize=auto;html=1;" edge="1" parent="1" source="xap4LW5MkFUEL4eOMsLZ-24" target="xap4LW5MkFUEL4eOMsLZ-22">
          <mxGeometry relative="1" as="geometry" />
        </mxCell>
        <mxCell id="xap4LW5MkFUEL4eOMsLZ-24" value="Průměr" style="ellipse;whiteSpace=wrap;html=1;" vertex="1" parent="1">
          <mxGeometry x="910" y="510" width="140" height="70" as="geometry" />
        </mxCell>
        <mxCell id="xap4LW5MkFUEL4eOMsLZ-27" style="edgeStyle=orthogonalEdgeStyle;rounded=0;orthogonalLoop=1;jettySize=auto;html=1;" edge="1" parent="1" source="xap4LW5MkFUEL4eOMsLZ-25" target="xap4LW5MkFUEL4eOMsLZ-22">
          <mxGeometry relative="1" as="geometry" />
        </mxCell>
        <mxCell id="xap4LW5MkFUEL4eOMsLZ-25" value="Separátní" style="ellipse;whiteSpace=wrap;html=1;" vertex="1" parent="1">
          <mxGeometry x="910" y="630" width="140" height="70" as="geometry" />
        </mxCell>
      </root>
    </mxGraphModel>
  </diagram>
</mxfile>
